<svg width="111" height="113" viewBox="0 0 111 113" fill="none" xmlns="http://www.w3.org/2000/svg">
<rect width="111" height="113" rx="55.5" fill="#FF3D00"/>
<path d="M46.2806 80.4533C47.936 80.2279 48.2663 82.2139 48.9752 83.1014C52.1007 87.0126 59.7533 88.0289 63.5998 84.4827C64.7839 83.3912 65.8392 80.1635 67.8369 80.4032C70.173 80.6824 68.3363 84.268 67.5308 85.2699C63.7931 89.9219 54.2434 90.8451 49.1242 87.5709C47.65 86.6261 42.5711 80.9579 46.2766 80.4533H46.2806Z" fill="#040202"/>
<path d="M21.8624 49.8045C21.6525 51.6153 21.5904 54.4509 22.6239 57.7145C24.1781 62.5854 27.3254 65.6947 28.9495 67.0984C29.7188 66.8878 35.5937 65.1542 38.0415 59.5744C40.2018 54.6614 38.127 50.3239 37.7384 49.5519C32.4464 49.6361 27.1544 49.7203 21.8624 49.8045Z" fill="black"/>
<path d="M53.4692 49.8052C52.8709 51.1247 51.7907 54.0725 52.5134 57.7082C53.6946 63.5968 58.7069 66.692 59.686 67.2675C60.3543 67.1201 67.0063 65.5479 69.6484 59.5751C71.8087 54.6972 69.7494 50.3527 69.3453 49.5526C64.0533 49.6368 58.7613 49.721 53.4692 49.8052Z" fill="black"/>
<path d="M41.4077 71.0023C40.7006 71.0023 37.8719 71.0023 34.5149 69.9214C33.0306 69.4442 30.8625 68.7283 28.7644 66.9666C28.0805 66.3981 27.5832 65.8577 27.249 65.4717C27.2024 64.847 27.1558 64.2294 27.1091 63.6047L27.6453 61.8641H30.0621L29.3549 56.1229L33.5824 57.8775C34.1807 58.1232 34.6858 58.4109 35.1055 58.6636C36.3177 56.4878 36.6674 53.5681 36.0924 50.3817L35.595 47.6234H60.703L60.703 55.7158C60.703 57.2459 58.7991 61.1973 58.7836 61.2394C55.7685 67.2614 49.1165 71.0023 41.4155 71.0023H41.4077Z" fill="black"/>
<path d="M58.072 49.9943L58.072 55.7145C58.072 56.4304 56.7898 59.4414 56.3857 60.2555C51.8086 69.4008 38.0695 71.2747 29.9722 64.7685C29.8012 64.6281 29.4748 64.7825 29.6458 64.2351H33.0028L32.49 60.0309C34.8523 61.0135 35.5051 62.8735 37.1836 60.1923C39.0953 57.1463 39.2973 53.3843 38.6834 49.9943H58.0642H58.072Z" fill="white"/>
<path d="M72.4192 71.41C69.9869 71.41 67.4536 70.9608 64.8814 70.0694C64.0421 69.7817 62.2315 68.7991 61.2212 68.2165C58.7268 66.7707 57.5378 65.8302 57.5067 64.4054C57.4912 63.7036 57.7787 63.0438 58.3227 62.5455C58.9288 61.991 59.7603 61.7103 60.7938 61.7103C61.058 61.7103 61.3378 61.7243 61.6098 61.7524C61.4077 60.6013 61.3067 59.8925 61.4 59.2608L61.501 58.5659L62.0061 58.0325C62.519 57.4851 63.2728 57.1763 64.0732 57.1763C65.1844 57.1763 65.9771 57.7097 67.2515 58.601C67.7566 57.3237 68.2617 55.7164 68.3394 55.197C68.4715 54.1512 68.3627 53.0142 68.2462 51.807C68.184 51.1824 68.1218 50.5296 68.0908 49.8699L67.9742 47.3994H87.2695L87.6503 47.5046C89.8184 48.1082 89.8961 50.3472 89.9349 51.5544C89.966 52.5089 89.9272 53.5476 89.8961 54.0109C89.2278 64.2651 82.0319 71.424 72.4114 71.424L72.4192 71.41Z" fill="black"/>
<path d="M86.9863 49.8824C87.5692 50.0438 87.4293 53.3004 87.3827 53.9742C86.6833 64.7267 78.0031 72.1454 65.9271 67.9693C65.0179 67.6535 60.2543 65.0847 60.2387 64.4741C60.2232 63.688 63.9221 64.8952 64.5205 64.1372C64.8935 63.6669 63.9921 60.4945 64.1164 59.6874C64.4117 59.3715 67.5978 62.207 68.3438 62.0105C69.2686 61.7649 70.9393 56.5992 71.0637 55.5815C71.2968 53.6794 70.916 51.7774 70.8305 49.8894H86.9863L86.9863 49.8824Z" fill="white"/>
<path d="M21.8547 49.8062L22.6862 46.8444C24.9787 38.7168 31.6539 34.246 41.492 34.246C42.1991 34.246 42.9218 34.267 43.6523 34.3162C47.3746 34.5548 51.2445 35.9234 54.2752 38.0711C57.71 40.5136 59.8004 43.7562 60.1578 47.2093L60.4298 49.8062H21.8547Z" fill="black"/>
<path d="M57.5522 47.4258H25.2483C27.5407 39.2842 34.5268 36.1118 43.479 36.6803C49.8278 37.0804 56.915 41.3757 57.5522 47.4258Z" fill="white"/>
<path d="M56.8287 49.8055L57.2639 47.1595C57.2328 46.9349 57.0075 46.4015 56.8754 46.0716C56.5024 45.1662 56.075 44.1345 56.2381 43.0396C56.3547 42.2394 56.8443 41.5306 57.8079 40.3304L57.8934 40.2181C60.8386 36.5333 65.7964 34.4277 71.4848 34.4277C75.6733 34.4277 79.7608 35.5718 83.0013 37.6493C86.6382 39.9865 88.8995 43.3694 89.3658 47.1665L89.6921 49.8055H56.8287Z" fill="black"/>
<path d="M86.7526 47.4258H59.8728C60.0749 46.2116 58.6839 44.4078 58.8393 43.355C58.8937 42.976 59.7252 41.9864 60.0283 41.6074C66.8667 33.0728 85.4082 36.4417 86.7604 47.4258H86.7526Z" fill="white"/>
<path d="M65.7546 23.6757C69.0417 23.2055 80.3407 23.5704 83.6666 24.1881C85.2675 24.4899 86.6118 25.4865 86.7673 26.9885C87.0548 29.838 85.656 31.6208 82.4699 31.9998C79.5947 32.3437 66.5006 32.3086 64.0605 31.6208C59.1726 30.2451 61.2396 24.3144 65.7546 23.6687L65.7546 23.6757Z" fill="#080505"/>
<path d="M31.3934 23.4574C35.0846 23.1767 40.5398 23.1557 44.2466 23.3732C47.1529 23.5417 49.8261 24.1242 50.0592 27.2264C50.4944 33.0098 42.8478 31.7394 38.5349 31.7815C35.2167 31.8166 29.6372 32.2307 26.5832 31.1569C24.4073 30.3918 24.213 29.0021 24.485 27.0299C24.9279 23.8014 28.4637 23.675 31.3856 23.4574H31.3934Z" fill="#080505"/>
<path d="M83.8583 26.699C84.7053 27.2465 84.0992 28.8116 83.0656 29.2678C80.8509 30.2364 71.9298 29.5907 69.0623 29.4433C67.819 29.3801 65.4644 29.7451 64.5319 29.0994C63.1953 28.1659 64.594 26.3972 65.9617 26.2007C71.1605 26.4884 76.8411 26.0814 81.9777 26.4112C82.3351 26.4323 83.6718 26.5867 83.8505 26.699H83.8583Z" fill="#FF3D00"/>
<path d="M33.4604 25.7883C36.1258 25.662 38.2939 25.8585 40.8661 25.9638C42.498 26.027 47.0052 25.3602 47.417 27.0587C47.8289 28.7572 46.6166 29.2976 45.0158 29.4591C42.4902 29.7117 30.5851 29.7328 28.6035 29.1081C26.8084 28.5396 26.3189 27.2482 28.1606 26.3779C29.334 25.8234 31.9917 25.8585 33.4526 25.7954L33.4604 25.7883Z" fill="#FF3D00"/>
</svg>
